<svg xmlns="http://www.w3.org/2000/svg" viewBox="0 0 100 100">
  <path fill="#000000" fill-rule="evenodd" d="m68.32,73.148l1.949,5.074,21.619-8.42-1.949-5.073c-7.206,2.806-14.413,5.613-21.619,8.42h0Zm-54.96-10.051c.644-.598,1.649-1.746,1.328-2.617-1.017-2.468-1.592-4.895-1.722-7.28-.131-2.392.186-4.733.951-7.025.733-2.603,1.238-5.115,1.515-7.535.287-2.504-.067-5.12.151-7.182.067-1.754,1.149-2.817,2.532-3.27,1.931-.633,4.558.053,5.423,1.968,2.484-3.25,5.255-7.28,7.875-10.302l-.002-.002c1.906-2.189,5.102-1.1,6.307,1.128,3.44-1.769,7.266.794,5.837,5.051,2.494.759,4.624,3.963,3.095,6.316h.001s-.377.585-.377.585c2.34.757,3.904,3.881,2.611,6.028l-6.493,11.371c1.502,10.765-3.087,13.832-7.287,16.638-1.444.965-2.833,1.893-3.759,3.132l2.574,1.002c.718.278,1.062,1.072.751,1.822l-2.897,7.542c-.271.708-1.074,1.055-1.757.781l-24.15-9.403c-.718-.278-1.062-1.072-.751-1.822l2.897-7.542c.271-.708,1.074-1.055,1.757-.781l3.591,1.396h0Zm2.731,1.064l12.646,4.925c3.642-5.915,13.015-4.896,10.89-18.816h.003c-.044-.291.006-.598.162-.874l6.692-11.719c.152-.436.11-.883-.066-1.261-.178-.384-.495-.704-.885-.86-.271-.108-.586-.135-.924-.048l-6.583,10.195c-.406.633-1.248.816-1.881.41-.633-.406-.816-1.248-.41-1.881l8.624-13.355h.001c.353-.561-.554-1.879-1.543-2.22-.231-.079-.461-.1-.662-.036-3.673,5.52-6.105,9.228-7.295,11.122l-.721,1.155c-.22.882-1.238,1.309-2.022.834-1.367-.829-.321-2.224.442-3.438.816-1.299,7.475-11.486,7.517-11.459l.026-.038c1.009-1.417,1.203-2.45.937-3.068-.405-.94-2.221-.882-3.437.965h.001s-9.127,13.389-9.127,13.389c-.424.621-1.27.781-1.891.357-.621-.424-.781-1.27-.357-1.891l9.118-13.376c.575-.918-1.19-2.373-1.877-1.535l-9.575,12.53.248,8.289c3.623,2.6,5.007,6.158,4.153,10.671-.138.739-.849,1.225-1.588,1.087-.738-.138-1.225-.849-1.087-1.588.671-3.543-.493-6.296-3.49-8.261-.398-.228-.671-.651-.685-1.143l-.281-9.396-.065-2.275c.026-.711-1.296-1.056-2.144-.778-.349.114-.624.363-.657.76.186,2.376.133,4.848-.161,7.413-.08.698-1.364,8.029-1.603,7.962-.006.021-.013.043-.02.064-.669,1.983-.947,4.012-.833,6.086.114,2.078.622,4.212,1.525,6.4.472,1.109.259,2.378-.254,3.4-.229.455-.524.89-.863,1.3h0Zm15.585,8.987c-7.206-2.807-14.413-5.613-21.619-8.42l-1.949,5.073,21.619,8.42,1.949-5.074h0Zm52.229-8.987l-12.646,4.925c-3.642-5.915-13.015-4.896-10.89-18.816h-.003c.044-.291-.006-.598-.162-.874l-6.692-11.719c-.289-.829.133-1.794.951-2.121.271-.108.586-.135.924-.048l6.583,10.195c.406.633,1.248.816,1.881.41.633-.406.816-1.248.41-1.881l-8.625-13.354c-.353-.555.548-1.878,1.543-2.221.231-.079.461-.1.662-.037,3.674,5.52,6.105,9.228,7.295,11.123l.721,1.155c.22.882,1.237,1.309,2.022.834,1.368-.829.321-2.223-.442-3.438-.816-1.299-7.476-11.487-7.517-11.459-.524-.766-1.384-2.128-.963-3.106.405-.938,2.217-.885,3.437.965l9.126,13.389c.424.621,1.27.781,1.891.357.621-.424.781-1.27.357-1.891l-9.118-13.376c-.575-.918,1.19-2.373,1.877-1.535l9.575,12.53-.248,8.289c-3.623,2.6-5.007,6.158-4.153,10.671.138.739.849,1.225,1.587,1.087.739-.138,1.225-.849,1.087-1.588-.671-3.543.493-6.296,3.49-8.261.398-.228.671-.651.685-1.143l.281-9.396.065-2.275c-.037-1.005,2.695-1.317,2.8-.018-.186,2.377-.133,4.848.161,7.413.293,2.56.827,5.214,1.601,7.962h.002c.612,2.178.982,3.8.853,6.15-.114,2.078-.622,4.212-1.525,6.4-.708,1.617.073,3.437,1.117,4.7h0Zm-15.253,5.941c-.927-1.24-2.316-2.168-3.759-3.132-4.2-2.806-8.789-5.874-7.287-16.638-1.697-2.972-5.46-8.746-6.592-11.569-.964-2.404.365-5.072,2.709-5.831l-.376-.585c-1.527-2.35.596-5.552,3.095-6.316-1.429-4.257,2.397-6.821,5.837-5.051,1.206-2.227,4.399-3.318,6.307-1.128l-.002.002c.019.022.037.044.055.068l7.82,10.234c.865-1.915,3.492-2.601,5.423-1.968,1.501.492,2.663,1.88,2.535,3.521-.177,2.22-.128,4.531.147,6.931.275,2.4.78,4.911,1.515,7.535.765,2.292,1.082,4.633.951,7.025-.13,2.386-.705,4.813-1.722,7.28-.321.871.684,2.02,1.328,2.617l3.591-1.396c.683-.273,1.486.074,1.757.781l2.923,7.606c.271.7-.078,1.487-.778,1.758l-24.149,9.405c-.674.261-1.49-.088-1.758-.783l-2.923-7.606c-.271-.7.078-1.487.778-1.758l2.574-1.002Z"/>
</svg>
